<svg width="383" height="73" viewBox="0 0 383 73" fill="none" xmlns="http://www.w3.org/2000/svg">
<path d="M334.978 41.716C336.045 39.924 337.453 38.5373 339.202 37.556C340.994 36.532 343.106 36.02 345.538 36.02V43.572H343.682C340.823 43.572 338.647 44.2973 337.154 45.748C335.703 47.1987 334.978 49.716 334.978 53.3V71.86H327.682V36.596H334.978V41.716Z" fill="black"/>
<path d="M315.582 42.548V62.068C315.582 63.3906 315.88 64.3506 316.478 64.948C317.118 65.5026 318.184 65.78 319.677 65.78H324.158V71.86H318.397C315.112 71.86 312.595 71.092 310.845 69.556C309.096 68.02 308.221 65.524 308.221 62.068V42.548H304.061V36.596H308.221V27.828H315.582V36.596H324.158V42.548H315.582Z" fill="black"/>
<path d="M288.882 72.436C286.109 72.436 283.613 71.9453 281.394 70.964C279.218 69.94 277.49 68.5747 276.21 66.868C274.93 65.1187 274.247 63.1773 274.162 61.044H281.714C281.842 62.5373 282.546 63.796 283.826 64.82C285.149 65.8013 286.791 66.292 288.754 66.292C290.802 66.292 292.381 65.908 293.49 65.14C294.642 64.3293 295.218 63.3053 295.218 62.068C295.218 60.7453 294.578 59.764 293.298 59.124C292.061 58.484 290.077 57.78 287.346 57.012C284.701 56.2867 282.546 55.5827 280.882 54.9C279.218 54.2173 277.767 53.172 276.53 51.764C275.335 50.356 274.738 48.5 274.738 46.196C274.738 44.3187 275.293 42.612 276.402 41.076C277.511 39.4973 279.09 38.26 281.138 37.364C283.229 36.468 285.618 36.02 288.306 36.02C292.317 36.02 295.538 37.044 297.97 39.092C300.445 41.0973 301.767 43.8493 301.938 47.348H294.642C294.514 45.7693 293.874 44.5107 292.722 43.572C291.57 42.6333 290.013 42.164 288.05 42.164C286.13 42.164 284.658 42.5267 283.634 43.252C282.61 43.9773 282.098 44.9373 282.098 46.132C282.098 47.0707 282.439 47.86 283.122 48.5C283.805 49.14 284.637 49.652 285.618 50.036C286.599 50.3773 288.05 50.8253 289.97 51.38C292.53 52.0627 294.621 52.7667 296.242 53.492C297.906 54.1747 299.335 55.1987 300.53 56.564C301.725 57.9293 302.343 59.7427 302.386 62.004C302.386 64.0093 301.831 65.8013 300.722 67.38C299.613 68.9587 298.034 70.196 295.986 71.092C293.981 71.988 291.613 72.436 288.882 72.436Z" fill="black"/>
<path d="M272.102 53.364C272.102 54.6867 272.017 55.8813 271.846 56.948H244.902C245.115 59.764 246.161 62.0253 248.038 63.732C249.915 65.4387 252.219 66.292 254.95 66.292C258.875 66.292 261.649 64.6493 263.27 61.364H271.142C270.075 64.6067 268.134 67.2733 265.318 69.364C262.545 71.412 259.089 72.436 254.95 72.436C251.579 72.436 248.55 71.6893 245.862 70.196C243.217 68.66 241.126 66.5267 239.59 63.796C238.097 61.0227 237.35 57.8227 237.35 54.196C237.35 50.5693 238.075 47.3907 239.526 44.66C241.019 41.8867 243.089 39.7533 245.734 38.26C248.422 36.7667 251.494 36.02 254.95 36.02C258.278 36.02 261.243 36.7453 263.846 38.196C266.449 39.6467 268.475 41.6947 269.926 44.34C271.377 46.9427 272.102 49.9507 272.102 53.364ZM264.486 51.06C264.443 48.372 263.483 46.2173 261.606 44.596C259.729 42.9747 257.403 42.164 254.63 42.164C252.113 42.164 249.958 42.9747 248.166 44.596C246.374 46.1747 245.307 48.3293 244.966 51.06H264.486Z" fill="black"/>
<path d="M233.403 24.5V71.86H226.107V24.5H233.403Z" fill="black"/>
<path d="M183.5 54.068C183.5 50.5267 184.225 47.3907 185.676 44.66C187.169 41.9293 189.175 39.8173 191.692 38.324C194.252 36.788 197.068 36.02 200.14 36.02C202.913 36.02 205.324 36.5747 207.372 37.684C209.463 38.7507 211.127 40.0947 212.364 41.716V36.596H219.724V71.86H212.364V66.612C211.127 68.276 209.441 69.6627 207.308 70.772C205.175 71.8813 202.743 72.436 200.012 72.436C196.983 72.436 194.209 71.668 191.692 70.132C189.175 68.5533 187.169 66.3773 185.676 63.604C184.225 60.788 183.5 57.6093 183.5 54.068ZM212.364 54.196C212.364 51.764 211.852 49.652 210.828 47.86C209.847 46.068 208.545 44.7027 206.924 43.764C205.303 42.8253 203.553 42.356 201.676 42.356C199.799 42.356 198.049 42.8253 196.428 43.764C194.807 44.66 193.484 46.004 192.46 47.796C191.479 49.5453 190.988 51.636 190.988 54.068C190.988 56.5 191.479 58.6333 192.46 60.468C193.484 62.3027 194.807 63.7107 196.428 64.692C198.092 65.6307 199.841 66.1 201.676 66.1C203.553 66.1 205.303 65.6307 206.924 64.692C208.545 63.7533 209.847 62.388 210.828 60.596C211.852 58.7613 212.364 56.628 212.364 54.196Z" fill="black"/>
<path d="M114.38 53.708C114.38 50.1667 115.106 47.0307 116.556 44.3C118.05 41.5693 120.055 39.4573 122.572 37.964C125.132 36.428 127.948 35.66 131.021 35.66C133.794 35.66 136.205 36.2147 138.253 37.324C140.343 38.3907 142.007 39.7347 143.245 41.356V36.236H150.604V71.5H143.245V66.252C142.007 67.916 140.322 69.3027 138.188 70.412C136.055 71.5213 133.623 72.076 130.893 72.076C127.863 72.076 125.09 71.308 122.572 69.772C120.055 68.1933 118.05 66.0173 116.556 63.244C115.106 60.428 114.38 57.2493 114.38 53.708ZM143.245 53.836C143.245 51.404 142.732 49.292 141.708 47.5C140.727 45.708 139.426 44.3427 137.805 43.404C136.183 42.4653 134.434 41.996 132.556 41.996C130.679 41.996 128.93 42.4653 127.308 43.404C125.687 44.3 124.365 45.644 123.34 47.436C122.359 49.1853 121.868 51.276 121.868 53.708C121.868 56.14 122.359 58.2733 123.34 60.108C124.365 61.9427 125.687 63.3507 127.308 64.332C128.972 65.2707 130.722 65.74 132.556 65.74C134.434 65.74 136.183 65.2707 137.805 64.332C139.426 63.3933 140.727 62.028 141.708 60.236C142.732 58.4013 143.245 56.268 143.245 53.836Z" fill="black"/>
<path d="M104.712 42.188V61.708C104.712 63.0307 105.011 63.9907 105.608 64.588C106.248 65.1427 107.315 65.42 108.808 65.42H113.288V71.5H107.528C104.243 71.5 101.725 70.732 99.976 69.196C98.2267 67.66 97.352 65.164 97.352 61.708V42.188H93.192V36.236H97.352V27.468H104.712V36.236H113.288V42.188H104.712Z" fill="black"/>
<path d="M78.0125 72.076C75.2392 72.076 72.7432 71.5853 70.5245 70.604C68.3485 69.58 66.6205 68.2147 65.3405 66.508C64.0605 64.7587 63.3778 62.8173 63.2925 60.684H70.8445C70.9725 62.1773 71.6765 63.436 72.9565 64.46C74.2792 65.4413 75.9218 65.932 77.8845 65.932C79.9325 65.932 81.5112 65.548 82.6205 64.78C83.7725 63.9693 84.3485 62.9453 84.3485 61.708C84.3485 60.3853 83.7085 59.404 82.4285 58.764C81.1912 58.124 79.2072 57.42 76.4765 56.652C73.8312 55.9267 71.6765 55.2227 70.0125 54.54C68.3485 53.8573 66.8978 52.812 65.6605 51.404C64.4658 49.996 63.8685 48.14 63.8685 45.836C63.8685 43.9587 64.4232 42.252 65.5325 40.716C66.6418 39.1373 68.2205 37.9 70.2685 37.004C72.3592 36.108 74.7485 35.66 77.4365 35.66C81.4472 35.66 84.6685 36.684 87.1005 38.732C89.5752 40.7373 90.8978 43.4893 91.0685 46.988H83.7725C83.6445 45.4093 83.0045 44.1507 81.8525 43.212C80.7005 42.2733 79.1432 41.804 77.1805 41.804C75.2605 41.804 73.7885 42.1667 72.7645 42.892C71.7405 43.6173 71.2285 44.5773 71.2285 45.772C71.2285 46.7107 71.5698 47.5 72.2525 48.14C72.9352 48.78 73.7672 49.292 74.7485 49.676C75.7298 50.0173 77.1805 50.4653 79.1005 51.02C81.6605 51.7027 83.7512 52.4067 85.3725 53.132C87.0365 53.8147 88.4658 54.8387 89.6605 56.204C90.8552 57.5693 91.4738 59.3827 91.5165 61.644C91.5165 63.6493 90.9618 65.4413 89.8525 67.02C88.7432 68.5987 87.1645 69.836 85.1165 70.732C83.1112 71.628 80.7432 72.076 78.0125 72.076Z" fill="black"/>
<path d="M58.8335 36.236V71.5H51.5375V36.236H58.8335Z" fill="black"/>
<path d="M48.636 27.02L31.932 71.5H23.484L0 0H7.808L29 58.5L40.956 27.02H48.636Z" fill="url(#paint0_linear_1_10)"/>
<path fill-rule="evenodd" clip-rule="evenodd" d="M188.094 21.6494C188.093 21.3227 188.091 21.0413 188.091 20.816C188.091 18.3413 187.494 16.1013 186.299 14.096C185.147 12.0907 183.377 10.512 180.987 9.35999C178.641 8.16533 175.761 7.56799 172.347 7.56799H156.987V71.5H164.283V41L164.283 40.6578V35.3985L164.283 35.048V13.52H172.347C177.851 13.52 180.603 15.952 180.603 20.816C180.603 21.349 180.653 22.2176 180.711 23.2539C180.906 26.6973 181.205 31.9921 180.155 32.976C178.79 34.2133 175.121 35.048 172.347 35.048L172.347 35.1731L168 41H172.347C176.017 41 179.653 40.2373 182 39C184.347 37.72 186.799 36 187.5 33.5C188.131 31.249 188.105 24.602 188.094 21.6494Z" fill="black"/>
<path fill-rule="evenodd" clip-rule="evenodd" d="M363.253 36.02C360.181 36.02 357.365 36.788 354.805 38.324C352.287 39.8173 350.282 41.9293 348.789 44.66C347.338 47.3907 346.613 50.5267 346.613 54.068C346.613 57.6093 347.338 60.788 348.789 63.604C350.282 66.3773 352.287 68.5533 354.805 70.132C357.322 71.668 360.095 72.436 363.125 72.436C365.855 72.436 368.287 71.8813 370.421 70.772C372.554 69.6627 374.239 68.276 375.477 66.612V71.86H382.837C382.837 61.6798 383.51 50.8858 379 43.764C375.874 38.8286 369.032 36.02 363.253 36.02ZM373.941 47.86C374.965 49.652 375.477 51.764 375.477 54.196C375.477 56.628 374.965 58.7613 373.941 60.596C372.959 62.388 371.658 63.7533 370.036 64.692C368.415 65.6307 366.666 66.1 364.789 66.1C362.954 66.1 361.204 65.6307 359.54 64.692C357.919 63.7107 356.597 62.3027 355.573 60.468C354.591 58.6333 354.1 56.5 354.1 54.068C354.1 51.636 354.591 49.5453 355.573 47.796C356.597 46.004 357.919 44.66 359.54 43.764C361.162 42.8253 362.911 42.356 364.789 42.356C366.666 42.356 368.415 42.8253 370.036 43.764C371.658 44.7027 372.959 46.068 373.941 47.86Z" fill="black"/>
<defs>
<linearGradient id="paint0_linear_1_10" x1="41.5" y1="36" x2="5" y2="5" gradientUnits="userSpaceOnUse">
<stop/>
<stop offset="0.68"/>
<stop offset="1" stop-color="white" stop-opacity="0"/>
</linearGradient>
</defs>
</svg>
